<?xml version="1.0" encoding="UTF-8"?>
<svg id="Layer_1" xmlns="http://www.w3.org/2000/svg" version="1.1" viewBox="0 0 99.45 99.09">
  <!-- Generator: Adobe Illustrator 29.5.1, SVG Export Plug-In . SVG Version: 2.1.0 Build 141)  -->
  <defs>
    <style>
      .st0 {
        fill: none;
        stroke: #a91e22;
        stroke-linecap: round;
        stroke-miterlimit: 10;
        stroke-width: .98px;
      }
    </style>
  </defs>
  <circle class="st0" cx="49.71" cy="49.56" r="48.74"/>
  <path class="st0" d="M74.75,26.96v.56c0,3.34,0,3.33,3.39,3.39.82.01,1.64.21,2.45.16,1.28-.08,1.87.42,1.9,1.71.04,1.51-.52,2.35-1.9,2.43-1.5.08-3.01.02-4.52.02-3.58,0-7.15.03-10.73-.02-1.24-.02-2.09.11-2.1,1.71-.01,2.08.61,2.2,2.1,2.23,4.58.09,9.16.03,13.74.03.44,0,.88-.03,1.32,0,1.25.11,2.18.41,2.12,2.07-.05,1.54-.81,2.04-2.12,2.06-2.32.04-4.64.01-6.96.01-2.7,0-5.39,0-8.09,0-1.4,0-2.13.51-2.11,2.07.02,1.41.51,1.92,1.92,1.9,5.77-.05,11.54-.02,17.31-.02"/>
  <path class="st0" d="M13.6,79.83c.63.06,1.25.18,1.88.18,4.83.02,9.66,0,14.49,0,3.95,0,7.9,0,11.85,0,1.76,0,2.24-.49,2.25-2.25.01-2.57.01-5.14,0-7.71-.01-1.84-.61-2.44-2.44-2.44-8.72,0-17.44,0-26.16,0-1.76,0-2.27.49-2.25,2.25.03,3.07.15,6.15.14,9.22,0,.44-.47.88-.72,1.32"/>
  <path class="st0" d="M51.8,1.18c-.06.19-.16.37-.18.57-.55,4.37-.09,4.89,4.32,4.89,3.83,0,16.65.18,16.94.03"/>
  <path class="st0" d="M9.43,77.08c.07-6.21.08-17.38,0-23.59-.02-1.65.45-2.11,2.1-2.1,11.29.06,22.58.03,33.87.04,2.24,0,2.26.01,2.26,2.26,0,10.79,0,21.58,0,32.36,0,.63.12,1.25.18,1.88"/>
  <path class="st0" d="M55.56,67.22c-.06.56-.18,1.13-.18,1.69-.01,5.52-.01,11.04,0,16.56,0,2.2.26,2.45,2.44,2.45,5.71,0,11.42-.03,17.12.03.94.01,1.88.47,2.82.72"/>
  <path class="st0" d="M90.03,75.88c-.07-6.21-.05-16.18-.02-22.39,0-1.24-.11-2.1-1.71-2.11-1.56,0-2.11.69-2.07,2.11.04,1.55-.78,2.13-2.26,2.08-3.7-.14-7.4-.36-11.1-.36-3.76,0-7.53.25-11.29.34-1.73.04-2.26-.5-2.26-2.06s.53-2.06,2.26-2.07c2.45,0,4.89,0,7.34,0"/>
  <path class="st0" d="M32.42,80.58c0,.44.04.88,0,1.32-.16,1.56.67,2.08,2.08,2.07,2.51-.01,5.02-.01,7.53,0,1.61,0,2.1.52,2.07,2.07-.02,1.38-.67,1.92-2.07,1.9-5.83-.05-11.67-.06-17.5.01-.94.01-1.88.47-2.82.72"/>
  <path class="st0" d="M55.37,51.42c0,2.82-.15,5.66.04,8.46.19,2.72-.22,5.03-2.68,6.59-1.06.67-1.15,1.68-1.15,2.82.04,6.21.02,12.42.02,18.63"/>
  <path class="st0" d="M77.67,10.02c-.91.19-1.82.53-2.73.54-7.02.05-14.05.03-21.07.02-.96,0-1.97.08-2.22,1.14-.22.95-.22,2.04.9,2.62.22.12.5.21.75.18,1.89-.17,2.09.95,2.09,2.46-.03,10.1-.02,20.2-.02,30.29"/>
  <path class="st0" d="M86.04,80.96c-.52-.86-1.31-1.03-2.26-.96-.87.07-1.76.06-2.63,0-1.52-.09-2.6.27-2.64,2.08-.04,1.58-.96,1.98-2.44,1.91-2.32-.11-4.64-.07-6.96-.02-1.36.03-2.13-.42-2.08-1.9.06-1.55-.78-2.15-2.25-2.08-.75.04-1.51.05-2.26,0-3.4-.21-3.19.99-3.2,3.58,0,.31,0,.63,0,.94"/>
  <path class="st0" d="M54.81,18.86c-2.7-.37-3.2.05-3.2,2.63v25.78"/>
  <path class="st0" d="M58.76,14.54c3.2,0,6.4-.01,9.6,0,1.84,0,2.43.58,2.44,2.44.03,3.95-.04,7.9.03,11.85.03,1.56-.69,2.08-2.09,2.07-2.2-.01-4.39-.03-6.59,0-2.51.04-2.72-.04-2.79,2.82-.11,4.64-.03,9.28-.03,13.92"/>
  <path class="st0" d="M21.13,18.68c3.14,0,6.27-.03,9.41.01,1.36.02,2.11-.42,2.08-1.9-.03-1.78-.4-2.25-2.08-2.25-3.64-.01-7.28,0-10.91,0-2.27,0-2.63.36-2.63,2.63,0,9.16-.02,18.32.01,27.47,0,2.12-.03,2.84-2.65,2.65-1-.08-2.01-.07-3.01,0-1.42.1-1.92-.48-1.9-1.9.05-6.27.04-12.54,0-18.82,0-.88-.35-1.76-.54-2.63"/>
  <path class="st0" d="M16.42,22.63q-3.2.43-3.2,3.95v20.51"/>
  <path class="st0" d="M47.66,1.18c0,1.13,0,2.26,0,3.39.01,1.4-.51,2.12-2.07,2.09-4.64-.07-9.28-.02-13.92-.02"/>
  <path class="st0" d="M22.07,10.02c.82.19,1.63.54,2.45.54,7.9.04,15.81.02,23.71.02"/>
  <path class="st0" d="M47.85,14.54c-3.14,0-6.27,0-9.41,0-1.67,0-2.25.56-2.26,2.07,0,1.71.38,2.04,2.26,2.07,3.26.05,6.52.12,9.78.18"/>
  <path class="st0" d="M40.69,71.74h-23.71"/>
  <path class="st0" d="M40.69,75.88h-23.71"/>
  <path class="st0" d="M70.05,92.63c-.63-.19-1.25-.53-1.88-.54-4.77-.05-9.53-.03-14.3-.02-1.76,0-2.26.49-2.25,2.25,0,1.07.11,2.13.18,3.2"/>
  <path class="st0" d="M47.66,97.52c0-1.19.01-2.38,0-3.58-.02-1.22-.59-1.89-1.88-1.89-5.02.01-10.04,0-15.05.03-.44,0-.88.35-1.32.54"/>
  <path class="st0" d="M1.18,51.42c5.28-.07,4.64-.31,4.71,4.7,0,0,.17,11.64.15,14.97"/>
  <path class="st0" d="M5.32,30.53c1,1.13.64,2.44.6,3.76-.1,3.38-.03,6.77-.03,10.16,0,2.68-.11,2.79-2.82,2.82-.63,0-1.25,0-1.88,0"/>
  <path class="st0" d="M47.66,26.96c-2.38,0-4.77.05-7.15-.02-1.43-.04-1.67.73-1.71,1.9-.04,1.25.29,1.94,1.71,1.9,2.38-.07,4.77-.02,7.15-.02"/>
  <path class="st0" d="M44.08,43.33c-5.77,0-11.54,0-17.31,0-.63,0-1.25-.12-1.88-.18"/>
  <path class="st0" d="M21.31,30.91c2.2-.06,4.39-.2,6.59-.16,1.42.03,2.06-.56,2.06-1.91,0-1.35-.64-1.96-2.06-1.9-2.19.08-4.39.02-6.59.02"/>
  <path class="st0" d="M98.27,51.42c-4.86-.2-4.55.25-4.52,4.52.02,2.95-.03,10.96.03,13.91"/>
  <path class="st0" d="M94.32,31.85c-.19.69-.53,1.38-.54,2.07-.05,3.57-.03,7.15-.02,10.73,0,2.09.53,2.61,2.63,2.63.63,0,1.25,0,1.88,0"/>
  <path class="st0" d="M67.04,59.7c-2.13-.13-4.27-.41-6.4-.32-1.28.05-1.42,1.34-1.29,2.39.12,1.03.4,1.93,1.86,1.91,5.58-.07,11.16-.03,16.75-.03,2.07,0,4.14-.03,6.21,0,1.45.02,2.04-.63,2.1-2.08.05-1.43-.61-2.22-1.91-2.23-5.46-.06-10.91-.03-16.37-.01-.25,0-.5.23-.75.36"/>
  <path class="st0" d="M34.49,22.82c3.89,0,7.78.06,11.67-.03,1.5-.04,1.93.52,1.9,1.91-.06,2.82-.09,5.65,0,8.47.06,1.59-.81,2.08-2.1,2.05-3.83-.07-7.65-.32-11.48-.33-3.32,0-6.65.24-9.97.34-3.29.1-3.56-.33-3.41-3.38.02-.37-.23-.75-.36-1.13"/>
  <path class="st0" d="M89.99,75.88h-31.24"/>
  <path class="st0" d="M34.3,34.67c0-3.58-.04-7.15.03-10.73.02-.94-.21-1.17-1.16-1.16-3.51.06-7.03.06-10.54,0-1.16-.02-1.57.36-1.53,1.53.07,2.13.02,4.26.02,6.4"/>
  <path class="st0" d="M58.76,18.68h13.36c4.01,0,8.03-.03,12.04.01,1.51.02,2.04.81,2.09,2.43.05,1.61-.85,1.71-2.09,1.71l-22.58.12c-1.33-.02-2.24.39-2.21,1.72.03,1.26.83,1.92,2.21,1.9,3.01-.05,22.58-.04,22.58-.04,1.65-.03,2.13.45,2.1,2.11-.09,5.27-.04,10.91-.03,16.18,0,.5,0,1.06.2,1.49.53,1.14,1.65,1.13,2.6.91,1.06-.24,1.14-1.26,1.14-2.22,0-6.15,0-12.29,0-18.44,0-.5-.19-1.12.03-1.48"/>
  <path class="st0" d="M82.47,51.42h-6.59c-3.21,0-3.46.29-3.01,3.58"/>
  <path class="st0" d="M51.61,51.42v12.04"/>
  <path class="st0" d="M67.04,68.16c0,.5-.01,1,0,1.51.04,1.42-.51,2.16-2.07,2.09-2.07-.09-4.14-.02-6.21-.02"/>
  <path class="st0" d="M24.7,80.58c.69,2.52-.29,3.57-2.83,3.44-1.8-.09-3.64.32-5.45.51"/>
  <path class="st0" d="M82.66,13.97c-1.69.19-3.38.48-5.08.54-2.67.09-2.82.17-2.82,2.85,0,3.07,0,6.15,0,9.22"/>
  <path class="st0" d="M86.23,71.74c.13-4.15.01-4.22-4.14-4.15-4.26.06-8.53.01-12.8.01h-9.78"/>
  <path class="st0" d="M72.68,64.03c0,4.83,0,9.66,0,14.49,0,.63.12,1.25.18,1.88"/>
  <path class="st0" d="M26.77,55.56h-13.55"/>
  <path class="st0" d="M26.77,59.7h-13.55"/>
  <path class="st0" d="M30.53,59.51c1.76.06,3.51.18,5.27.18,2.89-.01,5.77-.11,8.66-.18"/>
  <path class="st0" d="M26.77,63.46h-13.55"/>
  <path class="st0" d="M30.53,55.37c2.57.06,5.14.17,7.71.17,2.07,0,4.14-.11,6.21-.17"/>
  <path class="st0" d="M37.49,63.56s0-5.37,0-7.44"/>
  <line class="st0" x1="44.46" y1="63.65" x2="30.53" y2="63.65"/>
  <path class="st0" d="M78.7,68.16c-.06,1.32-.13,2.63-.19,3.95"/>
  <path class="st0" d="M19.62,55.93v7.34"/>
  <path class="st0" d="M67.04,59.89v3.39"/>
  <path class="st0" d="M78.52,59.89c.06,1.13.13,2.26.19,3.39"/>
  <path class="st0" d="M23.01,39.19c-1.51.02-2.05.75-1.91,2.26.13,1.43.06,2.88.02,4.32-.03,1.08.44,1.52,1.51,1.52,7.78-.02,15.56,0,23.33-.01,1.22,0,1.87-.65,1.88-1.88.02-1.44-.03-2.89.01-4.33.03-1.21-.6-1.76-1.7-1.87-.5-.05-1,0-1.5,0h-21.45"/>
</svg>